# xmcd
#
# Track frame offsets: 
#        150
#        18420
#        41940
#        62136
#        82653
#        98670
#        117556
#        139754
#        158177
#        179575
#        199790
#        215362
#        235385
#        256338
#        272555
#
# Disc length: 3912 seconds
#
# Revision: 5
# Processed by: cddbd v1.5.2PL0 Copyright (c) Steve Scherf et al.
# Submitted via: ExactAudioCopy v0.99pb3
#
DISCID=d40f460f
DTITLE=김범수 - 김범수 3집
DYEAR=2003
DGENRE=Ballad
TTITLE0=보고싶다
TTITLE1=바보 같은 내게
TTITLE2=이젠
TTITLE3=사랑해요
TTITLE4=지겨워
TTITLE5=My Delight
TTITLE6=이별 뒤에서
TTITLE7=혼자
TTITLE8=날 떠나가
TTITLE9=The One
TTITLE10=잘못된 이별
TTITLE11=나 없이 행복할 널 위해
TTITLE12=일기
TTITLE13=눈 속의 너
TTITLE14=Hello Good-bye Hello
EXTD=
EXTT0=
EXTT1=
EXTT2=
EXTT3=
EXTT4=
EXTT5=
EXTT6=
EXTT7=
EXTT8=
EXTT9=
EXTT10=
EXTT11=
EXTT12=
EXTT13=
EXTT14=
PLAYORDER=
